#!OML:ASF H:\Terrain\Patient Classification 1\Walking\liu\liu.ASF
:FULLY-SPECIFIED
:DEGREES
243
root 9.196850 16.225599 -2.519570 10.180200 -4.608760 -3.775320
lowerback -8.183802 2.251755 0.969595
upperback -2.768491 2.875026 2.416997
thorax 1.654939 1.440274 2.191673
lowerneck -20.061802 -6.577054 -15.469851
upperneck 17.941881 -8.397686 17.059570
head 10.254541 -3.215135 7.389767
rclavicle 0.000000 -0.000000
rhumerus -49.733089 8.414516 -95.660400
rradius 47.262268
rwrist -24.238392
rhand -31.855782 -25.463131
rfingers 7.837522
rthumb -2.544135 -58.427052
lclavicle 0.000000 -0.000000
lhumerus -51.764240 -5.186027 97.122520
lradius 21.530630
lwrist -6.765616
lhand -7.513880 -26.956490
lfingers 7.837522
lthumb 20.936852 5.041036
rfemur 18.491440 4.196731 26.219160
rtibia 17.544889
rfoot 5.917648 4.870734
rtoes -17.292110
lfemur -51.569653 10.075571 -23.349482
ltibia 46.973633
lfoot -6.177227 5.656365
ltoes -0.046094
244
root 9.238380 16.261700 -2.358860 10.131200 -4.967070 -3.342080
lowerback -8.163034 2.395987 0.766810
upperback -2.781108 3.087502 2.151149
thorax 1.628462 1.546072 2.047815
lowerneck -20.281912 -6.696250 -15.210580
upperneck 18.186081 -8.555624 16.683920
head 10.375443 -3.297877 7.187312
rclavicle 0.000000 -0.000000
rhumerus -50.070679 8.327121 -95.710342
rradius 46.792355
rwrist -24.580160
rhand -32.180939 -25.705570
rfingers 7.837522
rthumb -2.858218 -58.665859
lclavicle 0.000000 -0.000000
lhumerus -51.113041 -5.474645 97.026047
lradius 21.364531
lwrist -6.481013
lhand -6.653845 -24.826010
lfingers 7.837522
lthumb 21.763830 7.088335
rfemur 16.361509 3.408823 25.078571
rtibia 22.068859
rfoot 6.958864 5.151707
rtoes -15.720651
lfemur -50.625740 10.095843 -23.943480
ltibia 46.870560
lfoot -6.976696 5.665341
ltoes 0.971256
245
root 9.273260 16.299000 -2.207590 10.039600 -5.206670 -2.704710
lowerback -7.772292 2.335014 0.074156
upperback -2.997280 3.067196 2.033394
thorax 1.162722 1.541320 2.289210
lowerneck -20.442511 -6.652800 -15.235661
upperneck 18.575481 -8.449991 16.415081
head 10.508664 -3.268320 7.120410
rclavicle -0.000000 0.000000
rhumerus -50.986870 9.045487 -96.032310
rradius 46.832943
rwrist -25.685770
rhand -33.462551 -26.852652
rfingers 7.837522
rthumb -4.095850 -59.794571
lclavicle -0.000000 0.000000
lhumerus -50.790192 -5.349784 96.998993
lradius 21.164440
lwrist -6.745816
lhand -6.734651 -23.992319
lfingers 7.837522
lthumb 21.686171 7.930010
rfemur 14.469400 2.534048 23.803009
rtibia 26.197380
rfoot 7.729887 5.539336
rtoes -17.131180
lfemur -49.737270 10.060908 -24.861542
ltibia 46.754620
lfoot -7.487887 5.688463
ltoes 0.008635
246
root 9.311210 16.330601 -2.056900 9.938530 -5.502410 -2.127790
lowerback -7.431501 2.259213 -0.497934
upperback -3.198228 3.010612 1.937023
thorax 0.746682 1.520266 2.486088
lowerneck -20.522041 -6.552931 -15.256451
upperneck 18.998322 -8.280789 16.157570
head 10.629433 -3.211934 7.068655
rclavicle 0.000000 0.000000
rhumerus -51.349434 9.447086 -96.189064
rradius 45.940731
rwrist -26.168449
rhand -33.994179 -25.836031
rfingers 7.837522
rthumb -4.609319 -58.768383
lclavicle 0.000000 0.000000
lhumerus -50.551052 -5.038528 96.787682
lradius 21.226151
lwrist -7.475666
lhand -7.776681 -25.349279
lfingers 7.837522
lthumb 20.684181 6.673018
rfemur 12.772650 2.044471 22.664841
rtibia 30.120529
rfoot 8.742690 5.563437
rtoes -17.663691
lfemur -48.819321 10.198893 -25.740440
ltibia 46.553650
lfoot -8.044509 5.730197
ltoes -1.552419
247
root 9.355600 16.358601 -1.900360 9.762380 -5.854430 -1.799920
lowerback -7.023819 2.259158 -0.743597
upperback -3.376637 3.029301 1.921612
thorax 0.325234 1.536414 2.587013
lowerneck -20.321070 -6.436771 -15.348300
upperneck 19.224699 -8.114799 16.043831
head 10.641312 -3.159772 7.076762
rclavicle -0.000000 -0.000000
rhumerus -51.489681 9.067818 -95.480003
rradius 44.617210
rwrist -24.122671
rhand -32.066982 -24.778711
rfingers 7.837522
rthumb -2.748163 -57.740322
lclavicle -0.000000 -0.000000
lhumerus -50.333801 -5.239344 97.049591
lradius 21.952261
lwrist -8.032277
lhand -8.097903 -24.826780
lfingers 7.837522
lthumb 20.375191 7.225097
rfemur 11.224071 1.507275 21.729511
rtibia 33.873840
rfoot 10.518343 5.371289
rtoes -16.912611
lfemur -47.711403 10.510863 -26.306391
ltibia 46.309124
lfoot -8.889738 5.846038
ltoes -0.733042
248
root 9.395610 16.395399 -1.754490 9.619480 -6.100110 -1.248240
lowerback -6.037350 2.110383 -1.442089
upperback -3.993759 2.872166 1.956933
thorax -0.885025 1.484890 2.951223
lowerneck -20.178511 -6.200249 -15.265250
upperneck 19.938379 -7.805941 15.642220
head 10.790131 -3.055536 6.985980
rclavicle 0.000000 -0.000000
rhumerus -53.176201 10.540926 -96.341629
rradius 45.155441
rwrist -26.574572
rhand -33.089542 -26.939770
rfingers 7.837522
rthumb -3.735633 -59.887741
lclavicle 0.000000 -0.000000
lhumerus -50.876652 -6.039286 98.192924
lradius 21.861731
lwrist -4.501552
lhand -9.952976 -26.118290
lfingers 7.837522
lthumb 18.590111 6.094836
rfemur 9.428430 0.587516 20.579241
rtibia 37.452030
rfoot 11.698280 5.347903
rtoes -17.477680
lfemur -46.614590 10.479690 -27.016111
ltibia 45.909271
lfoot -9.708425 5.974364
ltoes 2.852344
249
root 9.430330 16.425501 -1.621850 9.475000 -6.408980 -1.321080
lowerback -6.421206 2.209768 -1.039510
upperback -3.290111 2.980395 1.830521
thorax 0.072898 1.515943 2.632861
lowerneck -21.245182 -6.314342 -14.917980
upperneck 19.850050 -7.887627 15.498231
head 10.951512 -3.043744 6.852065
rclavicle 0.000000 0.000000
rhumerus -52.247803 10.692859 -96.693962
rradius 44.810699
rwrist -27.959362
rhand -32.915192 -29.676352
rfingers 7.837522
rthumb -3.567278 -62.626965
lclavicle 0.000000 0.000000
lhumerus -48.872890 -6.103526 97.638092
lradius 21.783192
lwrist -5.634717
lhand -10.173647 -26.229170
lfingers 7.837522
lthumb 18.377701 6.001985
rfemur 7.573973 0.305288 20.514120
rtibia 40.917141
rfoot 12.358171 4.380046
rtoes -17.546431
lfemur -45.522072 10.252144 -26.741991
ltibia 45.397884
lfoot -10.193370 6.257900
ltoes 5.379209
250
root 9.465960 16.457100 -1.478320 9.372110 -6.735660 -1.124320
lowerback -6.687692 2.270862 -1.011295
upperback -2.939354 3.058363 1.696112
thorax 0.586304 1.546028 2.503391
lowerneck -21.517210 -6.298952 -14.764421
upperneck 19.680651 -7.834882 15.395380
head 10.923451 -3.009534 6.788122
rclavicle -0.000000 0.000000
rhumerus -51.839699 11.010560 -97.210960
rradius 43.964912
rwrist -30.094021
rhand -35.404491 -25.255011
rfingers 7.837522
rthumb -5.971064 -58.156559
lclavicle -0.000000 0.000000
lhumerus -47.802151 -7.040704 97.988441
lradius 22.348261
lwrist -5.321074
lhand -10.576104 -25.033361
lfingers 7.837522
lthumb 17.990171 7.230114
rfemur 5.762108 0.174500 20.095020
rtibia 44.367401
rfoot 13.073170 3.444892
rtoes -18.014481
lfemur -44.355080 10.007734 -26.902481
ltibia 44.736012
lfoot -10.489721 6.649566
ltoes 4.477209
251
root 9.498330 16.493099 -1.332860 9.046710 -7.147600 -0.390475
lowerback -6.584710 2.311892 -1.671549
upperback -2.655675 3.150752 1.466971
thorax 0.795653 1.590776 2.645852
lowerneck -21.912771 -6.272618 -14.752871
upperneck 19.744890 -7.756848 15.393291
head 11.006380 -2.958065 6.799221
rclavicle 0.000000 -0.000000
rhumerus -51.137463 10.031395 -96.123940
rradius 43.642391
rwrist -26.242041
rhand -33.624031 -29.910761
rfingers 7.837522
rthumb -4.251852 -62.849930
lclavicle 0.000000 -0.000000
lhumerus -46.717003 -7.271419 97.704201
lradius 22.396330
lwrist -5.607998
lhand -9.880673 -25.791151
lfingers 7.837522
lthumb 18.659632 6.416047
rfemur 4.149992 0.008564 18.962681
rtibia 47.711071
rfoot 13.591050 2.700280
rtoes -19.343281
lfemur -42.939491 10.085548 -27.833632
ltibia 44.052471
lfoot -10.880419 6.889157
ltoes 3.453560
